<svg width="315" height="180" viewBox="0 0 315 180" fill="none" xmlns="http://www.w3.org/2000/svg">
<path d="M0.769206 176.88C2.19722 179.456 5.44329 180.387 8.0195 178.959C10.5957 177.531 11.5265 174.285 10.0985 171.709C8.67047 169.133 5.4244 168.202 2.84819 169.63C0.271985 171.058 -0.658809 174.304 0.769206 176.88ZM304.237 8.66546C305.665 11.2417 308.911 12.1725 311.487 10.7445C314.063 9.31643 314.994 6.07037 313.566 3.49416C312.138 0.91795 308.892 -0.0128418 306.316 1.41518C303.74 2.84318 302.809 6.08925 304.237 8.66546ZM16.0188 175.69L17.0182 175.725L17.0897 173.727L16.0904 173.691L16.0188 175.69ZM36.4249 174.357L35.4253 174.327L35.3663 176.326L36.3659 176.356L36.4249 174.357ZM55.5366 176.858L56.5363 176.88L56.5816 174.881L55.5819 174.858L55.5366 176.858ZM76.4505 175.24L75.4506 175.227L75.4232 177.227L76.4231 177.24L76.4505 175.24ZM95.8787 177.411L96.8787 177.414L96.8857 175.414L95.8857 175.411L95.8787 177.411ZM116.45 175.35L115.45 175.36L115.47 177.359L116.47 177.349L116.45 175.35ZM135.726 177.006L136.726 176.979L136.673 174.98L135.674 175.006L135.726 177.006ZM156.344 174.226L155.345 174.276L155.446 176.273L156.445 176.223L156.344 174.226ZM176.47 174.888L177.466 174.803L177.296 172.811L176.3 172.896L176.47 174.888ZM196.019 170.703L195.029 170.845L195.312 172.824L196.302 172.683L196.019 170.703ZM216.107 168.809L217.073 168.55L216.554 166.618L215.588 166.878L216.107 168.809ZM233.099 158.987L232.346 159.646L233.663 161.151L234.416 160.493L233.099 158.987ZM235.666 141.493L235.124 140.653L233.444 141.738L233.986 142.578L235.666 141.493ZM220.468 128.164L221.224 128.819L222.534 127.307L221.778 126.652L220.468 128.164ZM205.965 114.06L205.166 113.459L203.963 115.056L204.762 115.658L205.965 114.06ZM188.632 103.694L189.435 104.29L190.626 102.683L189.823 102.088L188.632 103.694ZM173.855 89.9023L173.073 89.2785L171.826 90.8416L172.607 91.4655L173.855 89.9023ZM157.479 78.2773L158.192 78.9783L159.594 77.5519L158.881 76.8509L157.479 78.2773ZM146.676 61.4162L146.218 60.5273L144.44 61.4438L144.898 62.3326L146.676 61.4162ZM144.7 42.3294L144.171 43.1782L145.869 44.2358L146.397 43.387L144.7 42.3294ZM161.255 31.5157L162.15 31.0693L161.257 29.2796L160.362 29.726L161.255 31.5157ZM179.322 22.5141L178.363 22.7996L178.934 24.7163L179.893 24.4308L179.322 22.5141ZM199.124 19.6309L200.102 19.4248L199.69 17.4677L198.712 17.6738L199.124 19.6309ZM218.301 14.0838L217.314 14.2415L217.629 16.2165L218.617 16.0588L218.301 14.0838ZM238.749 13.2148L239.742 13.0909L239.494 11.1063L238.501 11.2302L238.749 13.2148ZM258.225 9.02091L257.23 9.12072L257.43 11.1107L258.425 11.0109L258.225 9.02091ZM278.325 9.21173L279.322 9.13072L279.16 7.1373L278.163 7.21831L278.325 9.21173ZM298.196 5.74766L297.199 5.81359L297.331 7.80923L298.328 7.74331L298.196 5.74766ZM5.39518 175.294C8.98703 175.433 12.528 175.565 16.0188 175.69L16.0904 173.691C12.6015 173.566 9.06246 173.434 5.47251 173.295L5.39518 175.294ZM36.3659 176.356C42.9505 176.55 49.3392 176.717 55.5366 176.858L55.5819 174.858C49.3893 174.718 43.0052 174.551 36.4249 174.357L36.3659 176.356ZM76.4231 177.24C83.1597 177.332 89.6423 177.389 95.8787 177.411L95.8857 175.411C89.6565 175.389 83.1807 175.333 76.4505 175.24L76.4231 177.24ZM116.47 177.349C123.219 177.282 129.634 177.167 135.726 177.006L135.674 175.006C129.593 175.167 123.189 175.282 116.45 175.35L116.47 177.349ZM156.445 176.223C163.671 175.858 170.335 175.411 176.47 174.888L176.3 172.896C170.191 173.416 163.55 173.861 156.344 174.226L156.445 176.223ZM196.302 172.683C204.086 171.57 210.647 170.275 216.107 168.809L215.588 166.878C210.227 168.317 203.748 169.598 196.019 170.703L196.302 172.683ZM234.416 160.493C237.474 157.817 238.977 154.806 239.068 151.517C239.159 148.272 237.871 144.907 235.666 141.493L233.986 142.578C236.079 145.819 237.144 148.78 237.069 151.461C236.996 154.097 235.815 156.611 233.099 158.987L234.416 160.493ZM221.778 126.652C217.064 122.569 211.665 118.355 205.965 114.06L204.762 115.658C210.449 119.943 215.806 124.125 220.468 128.164L221.778 126.652ZM189.823 102.088C184.375 98.0486 178.959 93.9762 173.855 89.9023L172.607 91.4655C177.74 95.5622 183.179 99.6517 188.632 103.694L189.823 102.088ZM158.881 76.8509C153.506 71.568 149.244 66.3976 146.676 61.4162L144.898 62.3326C147.606 67.5855 152.037 72.9288 157.479 78.2773L158.881 76.8509ZM146.397 43.387C148.95 39.2898 153.681 35.2939 161.255 31.5157L160.362 29.726C152.614 33.5911 147.524 37.7974 144.7 42.3294L146.397 43.387ZM179.893 24.4308C185.527 22.7523 191.915 21.1494 199.124 19.6309L198.712 17.6738C191.46 19.2015 185.017 20.8173 179.322 22.5141L179.893 24.4308ZM218.617 16.0588C224.861 15.0612 231.564 14.1122 238.749 13.2148L238.501 11.2302C231.296 12.1302 224.571 13.0823 218.301 14.0838L218.617 16.0588ZM258.425 11.0109C264.743 10.3771 271.373 9.77685 278.325 9.21173L278.163 7.21831C271.199 7.78437 264.557 8.38571 258.225 9.02091L258.425 11.0109ZM298.328 7.74331C301.802 7.51379 305.345 7.292 308.96 7.07806L308.842 5.08155C305.223 5.29576 301.674 5.51783 298.196 5.74766L298.328 7.74331Z" fill="#F2D77A" fill-opacity="0.7"/>
</svg>
