<svg width="443" height="251" viewBox="0 0 443 251" fill="none" xmlns="http://www.w3.org/2000/svg">
<path d="M1.62956 247.627C3.05757 250.204 6.30364 251.134 8.87985 249.706C11.4561 248.278 12.3869 245.032 10.9588 242.456C9.53082 239.88 6.28475 238.949 3.70855 240.377C1.13234 241.805 0.201542 245.051 1.62956 247.627ZM432.725 8.66722C434.153 11.2434 437.399 12.1742 439.975 10.7462C442.552 9.3182 443.482 6.07214 442.054 3.49593C440.626 0.919719 437.38 -0.0110731 434.804 1.41695C432.228 2.84497 431.297 6.09102 432.725 8.66722ZM16.9484 244.937L17.9429 244.833L17.7339 242.844L16.7394 242.948L16.9484 244.937ZM37.1705 240.763L36.1764 240.872L36.3928 242.86L37.3869 242.752L37.1705 240.763ZM56.9531 240.583L57.9468 240.471L57.7224 238.483L56.7287 238.596L56.9531 240.583ZM75.8494 236.395L74.8563 236.512L75.0894 238.498L76.0826 238.382L75.8494 236.395ZM96.789 235.896L97.7815 235.774L97.5376 233.789L96.5451 233.911L96.789 235.896ZM116.126 231.447L115.134 231.575L115.39 233.559L116.382 233.431L116.126 231.447ZM135.713 230.874L136.704 230.739L136.435 228.757L135.444 228.892L135.713 230.874ZM155.866 226.031L154.877 226.174L155.163 228.153L156.153 228.01L155.866 226.031ZM175.152 225.172L176.14 225.019L175.835 223.043L174.847 223.195L175.152 225.172ZM195.188 219.924L194.201 220.09L194.532 222.062L195.518 221.897L195.188 219.924ZM214.634 218.546L215.618 218.365L215.257 216.398L214.273 216.579L214.634 218.546ZM234.369 212.672L233.39 212.874L233.794 214.833L234.773 214.631L234.369 212.672ZM253.706 210.449L254.679 210.218L254.217 208.272L253.244 208.503L253.706 210.449ZM272.594 203.459L271.634 203.737L272.188 205.658L273.149 205.381L272.594 203.459ZM292.21 199.058L293.142 198.696L292.417 196.832L291.485 197.194L292.21 199.058ZM309.003 188.323L308.19 188.906L309.355 190.531L310.168 189.949L309.003 188.323ZM318.253 172.285L317.914 171.344L316.033 172.023L316.372 172.963L318.253 172.285ZM303.429 158.836L304.237 159.425L305.416 157.809L304.608 157.22L303.429 158.836ZM287.64 146.548L286.77 146.054L285.783 147.794L286.653 148.287L287.64 146.548ZM269.055 138.72L269.938 139.19L270.877 137.424L269.994 136.954L269.055 138.72ZM252.378 127.464L251.503 126.978L250.533 128.727L251.407 129.212L252.378 127.464ZM234.197 118.97L235.034 119.517L236.128 117.843L235.29 117.296L234.197 118.97ZM219.637 105.107L218.928 104.401L217.518 105.819L218.227 106.524L219.637 105.107ZM208.769 88.7028L208.796 89.7025L210.796 89.6481L210.769 88.6484L208.769 88.7028ZM219.435 72.3831L220.175 71.7101L218.829 70.2308L218.089 70.9037L219.435 72.3831ZM234.458 59.8123L233.577 60.2867L234.526 62.0474L235.406 61.573L234.458 59.8123ZM253.371 53.2102L254.296 52.831L253.538 50.9804L252.613 51.3596L253.371 53.2102ZM271.724 44.2416L270.777 44.5647L271.423 46.4574L272.37 46.1343L271.724 44.2416ZM291.019 40.1821L291.977 39.895L291.403 37.9792L290.445 38.2663L291.019 40.1821ZM309.564 32.8339L308.598 33.0947L309.12 35.0254L310.085 34.7646L309.564 32.8339ZM329.6 29.7217L330.57 29.4812L330.089 27.5399L329.119 27.7803L329.6 29.7217ZM348.336 23.1909L347.361 23.4156L347.811 25.3645L348.785 25.1398L348.336 23.1909ZM368.188 20.806L369.165 20.5943L368.742 18.6397L367.764 18.8514L368.188 20.806ZM387.783 14.6376L386.803 14.8382L387.204 16.7975L388.184 16.597L387.783 14.6376ZM407.061 12.8235L408.043 12.6318L407.659 10.6689L406.678 10.8606L407.061 12.8235ZM426.736 7.03188L425.753 7.21539L426.12 9.18142L427.103 8.99791L426.736 7.03188ZM6.39694 246.036C9.95133 245.669 13.4684 245.303 16.9484 244.937L16.7394 242.948C13.2605 243.314 9.74467 243.68 6.19145 244.047L6.39694 246.036ZM37.3869 242.752C44.0535 242.026 50.5746 241.303 56.9531 240.583L56.7287 238.596C50.353 239.315 43.8345 240.038 37.1705 240.763L37.3869 242.752ZM76.0826 238.382C83.1731 237.549 90.0738 236.721 96.789 235.896L96.5451 233.911C89.8337 234.735 82.9365 235.564 75.8494 236.395L76.0826 238.382ZM116.382 233.431C123.023 232.575 129.465 231.722 135.713 230.874L135.444 228.892C129.2 229.74 122.763 230.592 116.126 231.447L116.382 233.431ZM156.153 228.01C162.723 227.06 169.054 226.114 175.152 225.172L174.847 223.195C168.756 224.136 162.431 225.081 155.866 226.031L156.153 228.01ZM195.518 221.897C202.212 220.775 208.579 219.658 214.634 218.546L214.273 216.579C208.229 217.689 201.871 218.804 195.188 219.924L195.518 221.897ZM234.773 214.631C241.559 213.23 247.862 211.836 253.706 210.449L253.244 208.503C247.421 209.885 241.138 211.275 234.369 212.672L234.773 214.631ZM273.149 205.381C280.484 203.264 286.809 201.158 292.21 199.058L291.485 197.194C286.152 199.267 279.886 201.355 272.594 203.459L273.149 205.381ZM310.168 189.949C314.111 187.123 316.689 184.24 318.002 181.269C319.328 178.266 319.324 175.254 318.253 172.285L316.372 172.963C317.282 175.488 317.274 177.965 316.172 180.461C315.056 182.989 312.78 185.616 309.003 188.323L310.168 189.949ZM304.608 157.22C299.754 153.678 293.943 150.124 287.64 146.548L286.653 148.287C292.929 151.848 298.664 155.359 303.429 158.836L304.608 157.22ZM269.994 136.954C264.11 133.825 258.147 130.667 252.378 127.464L251.407 129.212C257.196 132.426 263.176 135.594 269.055 138.72L269.994 136.954ZM235.29 117.296C229.164 113.294 223.788 109.236 219.637 105.107L218.227 106.524C222.512 110.788 228.013 114.931 234.197 118.97L235.29 117.296ZM210.769 88.6484C210.63 83.5454 213.11 78.1371 219.435 72.3831L218.089 70.9037C211.504 76.8951 208.609 82.8221 208.769 88.7028L210.769 88.6484ZM235.406 61.573C240.486 58.8363 246.445 56.0492 253.371 53.2102L252.613 51.3596C245.636 54.2194 239.611 57.0357 234.458 59.8123L235.406 61.573ZM272.37 46.1343C278.113 44.1736 284.321 42.1898 291.019 40.1821L290.445 38.2663C283.726 40.2804 277.494 42.2719 271.724 44.2416L272.37 46.1343ZM310.085 34.7646C316.248 33.0998 322.748 31.4189 329.6 29.7217L329.119 27.7803C322.255 29.4807 315.741 31.1651 309.564 32.8339L310.085 34.7646ZM348.785 25.1398C355 23.7068 361.465 22.2623 368.188 20.806L367.764 18.8514C361.033 20.3094 354.56 21.7558 348.336 23.1909L348.785 25.1398ZM388.184 16.597C394.286 15.3477 400.576 14.09 407.061 12.8235L406.678 10.8606C400.187 12.1281 393.891 13.3871 387.783 14.6376L388.184 16.597ZM427.103 8.99791C430.542 8.35592 434.031 7.71172 437.569 7.06531L437.21 5.09786C433.669 5.74473 430.178 6.38939 426.736 7.03188L427.103 8.99791Z" fill="#F2D77A" fill-opacity="0.7"/>
</svg>
